{
  "accessors": [
    {
      "bufferView": 2,
      "componentType": 5126,
      "count": 1234,
      "max": [
        0.07249999791383743,
        -5.960464477539063e-08,
        0.0465000718832016
      ],
      "min": [
        -0.07249999791383743,
        -0.22150006890296936,
        -0.1264999806880951
      ],
      "type": "VEC3"
    },
    {
      "bufferView": 2,
      "byteOffset": 14808,
      "componentType": 5126,
      "count": 1234,
      "max": [
        1.0,
        1.0,
        1.0
      ],
      "min": [
        -1.0,
        -1.0,
        -1.0
      ],
      "type": "VEC3"
    },
    {
      "bufferView": 1,
      "componentType": 5126,
      "count": 1234,
      "max": [
        0.9973170161247253,
        0.9543009996414185
      ],
      "min": [
        0.0,
        0.0
      ],
      "type": "VEC2"
    },
    {
      "bufferView": 0,
      "componentType": 5125,
      "count": 4794,
      "type": "SCALAR"
    },
    {
      "bufferView": 2,
      "byteOffset": 29616,
      "componentType": 5126,
      "count": 1172,
      "max": [
        0.03749999776482582,
        -0.03000009059906006,
        0.09824031591415405
      ],
      "min": [
        -0.03749999776482582,
        -0.18650005757808685,
        -0.009999997913837433
      ],
      "type": "VEC3"
    },
    {
      "bufferView": 2,
      "byteOffset": 43680,
      "componentType": 5126,
      "count": 1172,
      "max": [
        1.0,
        1.0,
        1.0
      ],
      "min": [
        -1.0,
        -1.0,
        -1.0
      ],
      "type": "VEC3"
    },
    {
      "bufferView": 1,
      "byteOffset": 9872,
      "componentType": 5126,
      "count": 1172,
      "max": [
        0.9932035207748413,
        0.9931387901306152
      ],
      "min": [
        0.4234029948711395,
        0.0
      ],
      "type": "VEC2"
    },
    {
      "bufferView": 0,
      "byteOffset": 19176,
      "componentType": 5125,
      "count": 5328,
      "type": "SCALAR"
    },
    {
      "bufferView": 2,
      "byteOffset": 57744,
      "componentType": 5126,
      "count": 478,
      "max": [
        0.02359117567539215,
        -0.12543001770973206,
        -0.04250406473875046
      ],
      "min": [
        -0.023547973483800888,
        -0.1725691556930542,
        -0.08686387538909912
      ],
      "type": "VEC3"
    },
    {
      "bufferView": 2,
      "byteOffset": 63480,
      "componentType": 5126,
      "count": 478,
      "max": [
        0.9999939203262329,
        0.9999939203262329,
        0.6032529473304749
      ],
      "min": [
        -0.9999939203262329,
        -0.9999938607215881,
        -1.0
      ],
      "type": "VEC3"
    },
    {
      "bufferView": 1,
      "byteOffset": 19248,
      "componentType": 5126,
      "count": 478,
      "max": [
        0.9967482686042786,
        0.9207323789596558
      ],
      "min": [
        0.8663436770439148,
        0.6222430467605591
      ],
      "type": "VEC2"
    },
    {
      "bufferView": 0,
      "byteOffset": 40488,
      "componentType": 5125,
      "count": 2592,
      "type": "SCALAR"
    }
  ],
  "asset": {
    "extras": {
      "author": "lajos.makra (https://sketchfab.com/lajos.makra)",
      "license": "CC-BY-4.0 (http://creativecommons.org/licenses/by/4.0/)",
      "source": "https://sketchfab.com/3d-models/argon-4704-wall-lamp-98b6b89273e3428087556f8a054c565b",
      "title": "Argon 4704 wall lamp"
    },
    "generator": "Sketchfab-13.66.0",
    "version": "2.0"
  },
  "bufferViews": [
    {
      "buffer": 0,
      "byteLength": 50856,
      "name": "floatBufferViews",
      "target": 34963
    },
    {
      "buffer": 0,
      "byteLength": 23072,
      "byteOffset": 50856,
      "byteStride": 8,
      "name": "floatBufferViews",
      "target": 34962
    },
    {
      "buffer": 0,
      "byteLength": 69216,
      "byteOffset": 73928,
      "byteStride": 12,
      "name": "floatBufferViews",
      "target": 34962
    }
  ],
  "buffers": [
    {
      "byteLength": 143144,
      "uri": "scene.bin"
    }
  ],
  "materials": [
    {
      "doubleSided": true,
      "name": "white_plastic",
      "pbrMetallicRoughness": {
        "baseColorFactor": [
          0.4580743875025973,
          0.4580743875025973,
          0.4580743875025973,
          1.0
        ],
        "metallicFactor": 0.0,
        "roughnessFactor": 0.44548127719324754
      }
    },
    {
      "doubleSided": true,
      "name": "copper",
      "pbrMetallicRoughness": {
        "baseColorFactor": [
          0.8,
          0.614188,
          0.240472,
          1.0
        ],
        "roughnessFactor": 0.17472940554222785
      }
    },
    {
      "doubleSided": true,
      "name": "lightbulb_25W",
      "pbrMetallicRoughness": {
        "baseColorFactor": [
          1.0,
          0.968857,
          0.9,
          1.0
        ],
        "metallicFactor": 0.0,
        "roughnessFactor": 0.05509485760340518
      }
    }
  ],
  "meshes": [
    {
      "name": "argon_4704_white_plastic_0",
      "primitives": [
        {
          "attributes": {
            "NORMAL": 1,
            "POSITION": 0,
            "TEXCOORD_0": 2
          },
          "indices": 3,
          "material": 0,
          "mode": 4
        }
      ]
    },
    {
      "name": "argon_4704_copper_0",
      "primitives": [
        {
          "attributes": {
            "NORMAL": 5,
            "POSITION": 4,
            "TEXCOORD_0": 6
          },
          "indices": 7,
          "material": 1,
          "mode": 4
        }
      ]
    },
    {
      "name": "argon_4704_lightbulb_25W_0",
      "primitives": [
        {
          "attributes": {
            "NORMAL": 9,
            "POSITION": 8,
            "TEXCOORD_0": 10
          },
          "indices": 11,
          "material": 2,
          "mode": 4
        }
      ]
    }
  ],
  "nodes": [
    {
      "children": [
        1
      ],
      "matrix": [
        1.0,
        0.0,
        0.0,
        0.0,
        0.0,
        2.220446049250313e-16,
        -1.0,
        0.0,
        0.0,
        1.0,
        2.220446049250313e-16,
        0.0,
        0.0,
        0.0,
        0.0,
        1.0
      ],
      "name": "Sketchfab_model"
    },
    {
      "children": [
        2
      ],
      "matrix": [
        0.009999999776482582,
        0.0,
        0.0,
        0.0,
        0.0,
        0.0,
        0.009999999776482582,
        0.0,
        0.0,
        -0.009999999776482582,
        0.0,
        0.0,
        0.0,
        0.0,
        0.0,
        1.0
      ],
      "name": "argon_4704.fbx"
    },
    {
      "children": [
        3,
        6,
        8
      ],
      "name": "RootNode"
    },
    {
      "children": [
        4
      ],
      "matrix": [
        -29.08647719990347,
        -5.518906457566863,
        -95.51711910171437,
        0.0,
        56.63930913109449,
        79.46723428563203,
        -21.83912397841966,
        0.0,
        77.11008775993375,
        -60.45246356562044,
        -19.98834696773717,
        0.0,
        407.6245422363281,
        590.38623046875,
        -100.54539489746094,
        1.0
      ],
      "name": "Light"
    },
    {
      "children": [
        5
      ],
      "matrix": [
        1.0,
        0.0,
        0.0,
        0.0,
        0.0,
        2.220446049250313e-16,
        1.0,
        0.0,
        0.0,
        -1.0,
        2.220446049250313e-16,
        0.0,
        0.0,
        0.0,
        0.0,
        1.0
      ],
      "name": "Object_4"
    },
    {
      "name": "Object_5"
    },
    {
      "children": [
        7
      ],
      "matrix": [
        -65.15581009765468,
        -44.527143038140764,
        -61.41704928909654,
        0.0,
        -32.40135466989878,
        89.5395708958271,
        -30.542085476036902,
        0.0,
        68.59207001076176,
        1.2755314797120858e-05,
        -72.76761921184276,
        0.0,
        735.88916015625,
        495.8309326171875,
        692.5791015625,
        1.0
      ],
      "name": "Camera"
    },
    {
      "name": "Object_7"
    },
    {
      "children": [
        9,
        10,
        11
      ],
      "matrix": [
        100.0,
        0.0,
        0.0,
        0.0,
        0.0,
        -1.629206793918314e-05,
        -99.99999999999868,
        0.0,
        0.0,
        99.99999999999868,
        -1.629206793918314e-05,
        0.0,
        0.0,
        0.0,
        0.0,
        1.0
      ],
      "name": "argon_4704"
    },
    {
      "mesh": 0,
      "name": "argon_4704_white_plastic_0"
    },
    {
      "mesh": 1,
      "name": "argon_4704_copper_0"
    },
    {
      "mesh": 2,
      "name": "argon_4704_lightbulb_25W_0"
    }
  ],
  "scene": 0,
  "scenes": [
    {
      "name": "Sketchfab_Scene",
      "nodes": [
        0
      ]
    }
  ]
}
