{
  "accessors": [
    {
      "bufferView": 2,
      "componentType": 5126,
      "count": 780,
      "max": [
        0.05079999938607216,
        0.05079997703433037,
        0.0731847956776619
      ],
      "min": [
        -0.05079999938607216,
        -0.05080004036426544,
        -0.0626768171787262
      ],
      "type": "VEC3"
    },
    {
      "bufferView": 2,
      "byteOffset": 9360,
      "componentType": 5126,
      "count": 780,
      "max": [
        1.0,
        1.0,
        1.0
      ],
      "min": [
        -1.0,
        -1.0,
        -1.0
      ],
      "type": "VEC3"
    },
    {
      "bufferView": 1,
      "componentType": 5126,
      "count": 780,
      "max": [
        1.004485845565796,
        1.0000001192092896
      ],
      "min": [
        -0.0033741025254130363,
        0.0
      ],
      "type": "VEC2"
    },
    {
      "bufferView": 0,
      "componentType": 5125,
      "count": 1962,
      "type": "SCALAR"
    },
    {
      "bufferView": 2,
      "byteOffset": 18720,
      "componentType": 5126,
      "count": 368,
      "max": [
        0.045813340693712234,
        0.04581329971551895,
        0.06475909799337387
      ],
      "min": [
        -0.045813340693712234,
        -0.04581338167190552,
        -0.05505901575088501
      ],
      "type": "VEC3"
    },
    {
      "bufferView": 2,
      "byteOffset": 23136,
      "componentType": 5126,
      "count": 368,
      "max": [
        0.9807853698730469,
        0.9807853698730469,
        1.0
      ],
      "min": [
        -0.9807853698730469,
        -0.9807853698730469,
        -1.0
      ],
      "type": "VEC3"
    },
    {
      "bufferView": 1,
      "byteOffset": 6240,
      "componentType": 5126,
      "count": 368,
      "max": [
        0.9900000095367432,
        0.49000000953674316
      ],
      "min": [
        0.03335731476545334,
        0.009999990463256836
      ],
      "type": "VEC2"
    },
    {
      "bufferView": 0,
      "byteOffset": 7848,
      "componentType": 5125,
      "count": 1020,
      "type": "SCALAR"
    },
    {
      "bufferView": 2,
      "byteOffset": 27552,
      "componentType": 5126,
      "count": 158,
      "max": [
        0.0213034488260746,
        0.017413485795259476,
        0.04941074922680855
      ],
      "min": [
        -0.02060306817293167,
        -0.017413567751646042,
        0.018774837255477905
      ],
      "type": "VEC3"
    },
    {
      "bufferView": 2,
      "byteOffset": 29448,
      "componentType": 5126,
      "count": 158,
      "max": [
        0.5310410261154175,
        0.5310410261154175,
        1.0
      ],
      "min": [
        -0.5310410261154175,
        -0.5310410261154175,
        -1.0
      ],
      "type": "VEC3"
    },
    {
      "bufferView": 1,
      "byteOffset": 9184,
      "componentType": 5126,
      "count": 158,
      "max": [
        0.9334396719932556,
        0.3891143500804901
      ],
      "min": [
        0.16885729134082794,
        0.114344522356987
      ],
      "type": "VEC2"
    },
    {
      "bufferView": 0,
      "byteOffset": 11928,
      "componentType": 5125,
      "count": 294,
      "type": "SCALAR"
    },
    {
      "bufferView": 2,
      "byteOffset": 31344,
      "componentType": 5126,
      "count": 16,
      "max": [
        0.0036441411357373,
        0.0036440978292375803,
        0.04634349048137665
      ],
      "min": [
        -0.003644136479124427,
        -0.0036441797856241465,
        0.04634349048137665
      ],
      "type": "VEC3"
    },
    {
      "bufferView": 2,
      "byteOffset": 31536,
      "componentType": 5126,
      "count": 16,
      "max": [
        -4.4741506144418963e-07,
        0.0,
        1.0
      ],
      "min": [
        -4.4741506144418963e-07,
        0.0,
        1.0
      ],
      "type": "VEC3"
    },
    {
      "bufferView": 1,
      "byteOffset": 10448,
      "componentType": 5126,
      "count": 16,
      "max": [
        0.27401188015937805,
        0.2740119397640228
      ],
      "min": [
        0.22598814964294434,
        0.22598814964294434
      ],
      "type": "VEC2"
    },
    {
      "bufferView": 0,
      "byteOffset": 13104,
      "componentType": 5125,
      "count": 42,
      "type": "SCALAR"
    },
    {
      "bufferView": 2,
      "byteOffset": 31728,
      "componentType": 5126,
      "count": 16,
      "max": [
        0.0036235260777175426,
        -0.005603422876447439,
        -0.06251133233308792
      ],
      "min": [
        -0.004798071924597025,
        -0.011439628899097443,
        -0.06264419853687286
      ],
      "type": "VEC3"
    },
    {
      "bufferView": 2,
      "byteOffset": 31920,
      "componentType": 5126,
      "count": 16,
      "max": [
        -0.00014249581727199256,
        0.022600840777158737,
        -0.9997446537017822
      ],
      "min": [
        -0.00014249581727199256,
        0.022600840777158737,
        -0.9997446537017822
      ],
      "type": "VEC3"
    },
    {
      "bufferView": 1,
      "byteOffset": 10576,
      "componentType": 5126,
      "count": 16,
      "max": [
        0.960314154624939,
        1.0000001192092896
      ],
      "min": [
        0.03968595340847969,
        0.9999998211860657
      ],
      "type": "VEC2"
    },
    {
      "bufferView": 0,
      "byteOffset": 13272,
      "componentType": 5125,
      "count": 42,
      "type": "SCALAR"
    },
    {
      "bufferView": 2,
      "byteOffset": 32112,
      "componentType": 5126,
      "count": 62,
      "max": [
        0.006644913461059332,
        0.006644870154559612,
        0.04634349048137665
      ],
      "min": [
        -0.006644908804446459,
        -0.0066449521109461784,
        0.04634349048137665
      ],
      "type": "VEC3"
    },
    {
      "bufferView": 2,
      "byteOffset": 32856,
      "componentType": 5126,
      "count": 62,
      "max": [
        2.463215423631482e-06,
        0.0,
        1.0
      ],
      "min": [
        -1.539501568004198e-06,
        0.0,
        1.0
      ],
      "type": "VEC3"
    },
    {
      "bufferView": 1,
      "byteOffset": 10704,
      "componentType": 5126,
      "count": 62,
      "max": [
        0.293784499168396,
        0.29378455877304077
      ],
      "min": [
        0.20621556043624878,
        0.20621559023857117
      ],
      "type": "VEC2"
    },
    {
      "bufferView": 0,
      "byteOffset": 13440,
      "componentType": 5125,
      "count": 96,
      "type": "SCALAR"
    },
    {
      "bufferView": 2,
      "byteOffset": 33600,
      "componentType": 5126,
      "count": 192,
      "max": [
        0.045813340693712234,
        0.04581329971551895,
        0.08033381402492523
      ],
      "min": [
        -0.045813340693712234,
        -0.04581338167190552,
        0.06427332013845444
      ],
      "type": "VEC3"
    },
    {
      "bufferView": 2,
      "byteOffset": 35904,
      "componentType": 5126,
      "count": 192,
      "max": [
        0.8944028615951538,
        0.8944028615951538,
        0.9984656572341919
      ],
      "min": [
        -0.8944028615951538,
        -0.8944028615951538,
        -0.9984656572341919
      ],
      "type": "VEC3"
    },
    {
      "bufferView": 1,
      "byteOffset": 11200,
      "componentType": 5126,
      "count": 192,
      "max": [
        0.0,
        0.0
      ],
      "min": [
        0.0,
        0.0
      ],
      "type": "VEC2"
    },
    {
      "bufferView": 0,
      "byteOffset": 13824,
      "componentType": 5125,
      "count": 1140,
      "type": "SCALAR"
    }
  ],
  "asset": {
    "extras": {
      "author": "Signalrenders (https://sketchfab.com/Signalrenders)",
      "license": "CC-BY-4.0 (http://creativecommons.org/licenses/by/4.0/)",
      "source": "https://sketchfab.com/3d-models/mini-camera-8452588bce664933b28951f982a74087",
      "title": "Mini Camera"
    },
    "generator": "Sketchfab-12.64.0",
    "version": "2.0"
  },
  "bufferViews": [
    {
      "buffer": 0,
      "byteLength": 18384,
      "name": "floatBufferViews",
      "target": 34963
    },
    {
      "buffer": 0,
      "byteLength": 12736,
      "byteOffset": 18384,
      "byteStride": 8,
      "name": "floatBufferViews",
      "target": 34962
    },
    {
      "buffer": 0,
      "byteLength": 38208,
      "byteOffset": 31120,
      "byteStride": 12,
      "name": "floatBufferViews",
      "target": 34962
    }
  ],
  "buffers": [
    {
      "byteLength": 69328,
      "uri": "scene.bin"
    }
  ],
  "extensionsUsed": [
    "KHR_materials_transmission"
  ],
  "materials": [
    {
      "doubleSided": true,
      "name": "camera_housing",
      "pbrMetallicRoughness": {
        "baseColorFactor": [
          0.7409556523337896,
          0.7333780538454506,
          0.711685067614138,
          1.0
        ],
        "metallicFactor": 0.0,
        "roughnessFactor": 0.2065282746000835
      }
    },
    {
      "doubleSided": true,
      "name": "inner_camera",
      "pbrMetallicRoughness": {
        "baseColorFactor": [
          0.015995,
          0.015995,
          0.015995,
          1.0
        ],
        "metallicFactor": 0.0,
        "roughnessFactor": 0.004731384806533918
      }
    },
    {
      "doubleSided": true,
      "name": "Material.001",
      "pbrMetallicRoughness": {
        "baseColorFactor": [
          0.0469617,
          0.0469617,
          0.0469617,
          1.0
        ],
        "metallicFactor": 0.0,
        "roughnessFactor": 0.013624290895704659
      }
    },
    {
      "doubleSided": true,
      "name": "pupil",
      "pbrMetallicRoughness": {
        "baseColorFactor": [
          0.0,
          0.0,
          0.0,
          1.0
        ],
        "metallicFactor": 0.0
      }
    },
    {
      "doubleSided": true,
      "name": "record",
      "pbrMetallicRoughness": {
        "baseColorFactor": [
          0.8,
          0.0,
          0.00325267,
          1.0
        ],
        "metallicFactor": 0.0,
        "roughnessFactor": 0.946141717750069
      }
    },
    {
      "doubleSided": true,
      "name": "camera_iris",
      "pbrMetallicRoughness": {
        "baseColorFactor": [
          0.06804620000000006,
          0.0,
          1.0,
          1.0
        ],
        "metallicFactor": 0.0,
        "roughnessFactor": 0.9731706473814475
      }
    },
    {
      "alphaMode": "BLEND",
      "doubleSided": true,
      "extensions": {
        "KHR_materials_transmission": {
          "transmissionFactor": 1.0
        }
      },
      "name": "camera_lens",
      "pbrMetallicRoughness": {
        "baseColorFactor": [
          0.8,
          0.8,
          0.8,
          0.25
        ],
        "metallicFactor": 0.0,
        "roughnessFactor": 0.8040408205773457
      }
    }
  ],
  "meshes": [
    {
      "name": "mini camera_camera housing_0",
      "primitives": [
        {
          "attributes": {
            "NORMAL": 1,
            "POSITION": 0,
            "TEXCOORD_0": 2
          },
          "indices": 3,
          "material": 0,
          "mode": 4
        }
      ]
    },
    {
      "name": "mini camera_inner camera_0",
      "primitives": [
        {
          "attributes": {
            "NORMAL": 5,
            "POSITION": 4,
            "TEXCOORD_0": 6
          },
          "indices": 7,
          "material": 1,
          "mode": 4
        }
      ]
    },
    {
      "name": "mini camera_Material.001_0",
      "primitives": [
        {
          "attributes": {
            "NORMAL": 9,
            "POSITION": 8,
            "TEXCOORD_0": 10
          },
          "indices": 11,
          "material": 2,
          "mode": 4
        }
      ]
    },
    {
      "name": "mini camera_pupil_0",
      "primitives": [
        {
          "attributes": {
            "NORMAL": 13,
            "POSITION": 12,
            "TEXCOORD_0": 14
          },
          "indices": 15,
          "material": 3,
          "mode": 4
        }
      ]
    },
    {
      "name": "mini camera_record_0",
      "primitives": [
        {
          "attributes": {
            "NORMAL": 17,
            "POSITION": 16,
            "TEXCOORD_0": 18
          },
          "indices": 19,
          "material": 4,
          "mode": 4
        }
      ]
    },
    {
      "name": "mini camera_camera iris_0",
      "primitives": [
        {
          "attributes": {
            "NORMAL": 21,
            "POSITION": 20,
            "TEXCOORD_0": 22
          },
          "indices": 23,
          "material": 5,
          "mode": 4
        }
      ]
    },
    {
      "name": "mini camera_camera lens_0",
      "primitives": [
        {
          "attributes": {
            "NORMAL": 25,
            "POSITION": 24,
            "TEXCOORD_0": 26
          },
          "indices": 27,
          "material": 6,
          "mode": 4
        }
      ]
    }
  ],
  "nodes": [
    {
      "children": [
        1
      ],
      "matrix": [
        1.0,
        0.0,
        0.0,
        0.0,
        0.0,
        2.220446049250313e-16,
        -1.0,
        0.0,
        0.0,
        1.0,
        2.220446049250313e-16,
        0.0,
        0.0,
        0.0,
        0.0,
        1.0
      ],
      "name": "Sketchfab_model"
    },
    {
      "children": [
        2
      ],
      "matrix": [
        0.009999999776482582,
        0.0,
        0.0,
        0.0,
        0.0,
        0.0,
        0.009999999776482582,
        0.0,
        0.0,
        -0.009999999776482582,
        0.0,
        0.0,
        0.0,
        0.0,
        0.0,
        1.0
      ],
      "name": "a1ebe1bf24f64d6f988a99433d199d61.fbx"
    },
    {
      "children": [
        3
      ],
      "name": "RootNode"
    },
    {
      "children": [
        4,
        5,
        6,
        7,
        8,
        9,
        10
      ],
      "matrix": [
        100.0,
        0.0,
        0.0,
        0.0,
        0.0,
        99.9999999999999,
        4.371138828673792e-06,
        0.0,
        0.0,
        -4.371138828673792e-06,
        99.9999999999999,
        0.0,
        0.0,
        0.0,
        0.0,
        1.0
      ],
      "name": "mini camera"
    },
    {
      "mesh": 0,
      "name": "mini camera_camera housing_0"
    },
    {
      "mesh": 1,
      "name": "mini camera_inner camera_0"
    },
    {
      "mesh": 2,
      "name": "mini camera_Material.001_0"
    },
    {
      "mesh": 3,
      "name": "mini camera_pupil_0"
    },
    {
      "mesh": 4,
      "name": "mini camera_record_0"
    },
    {
      "mesh": 5,
      "name": "mini camera_camera iris_0"
    },
    {
      "mesh": 6,
      "name": "mini camera_camera lens_0"
    }
  ],
  "scene": 0,
  "scenes": [
    {
      "name": "Sketchfab_Scene",
      "nodes": [
        0
      ]
    }
  ]
}
